<?xml version="1.0" encoding="utf-8"?>
<!-- Generator: Adobe Illustrator 26.0.3, SVG Export Plug-In . SVG Version: 6.00 Build 0)  -->
<svg version="1.1" id="Layer_1" xmlns="http://www.w3.org/2000/svg" xmlns:xlink="http://www.w3.org/1999/xlink" x="0px" y="0px"
	 viewBox="0 0 156.6 52.8" style="enable-background:new 0 0 156.6 52.8;" xml:space="preserve">
<style type="text/css">
	.st0{fill:#1D428F;}
</style>
<rect x="0" y="40.4" class="st0" width="12.4" height="12.4"/>
<polygon class="st0" points="46.5,52.8 55.3,52.8 55.3,0 0,0 0,8.9 46.5,8.9 "/>
<g>
	<path class="st0" d="M74,38v2.4H70v12.4h-3V40.4h-3.9V38H74z"/>
	<path class="st0" d="M83.7,52.8L80.5,47h-1.4v5.8h-3V38h5.5c1.1,0,2.1,0.2,2.9,0.6s1.4,0.9,1.8,1.6c0.4,0.7,0.6,1.5,0.6,2.3
		c0,1-0.3,1.9-0.8,2.6s-1.4,1.3-2.5,1.6l3.5,6H83.7z M79.1,44.8h2.5c0.8,0,1.4-0.2,1.8-0.6c0.4-0.4,0.6-0.9,0.6-1.6
		c0-0.7-0.2-1.2-0.6-1.6c-0.4-0.4-1-0.6-1.8-0.6h-2.5V44.8z"/>
	<path class="st0" d="M98.7,50h-5.9l-1,2.8h-3.1L94.1,38h3.5l5.3,14.8h-3.1L98.7,50z M97.9,47.6l-2.1-6.2l-2.1,6.2H97.9z"/>
	<path class="st0" d="M114.1,38.9c1.2,0.6,2.1,1.5,2.7,2.6c0.6,1.1,1,2.4,1,3.9c0,1.5-0.3,2.8-1,3.9c-0.6,1.1-1.6,2-2.7,2.6
		c-1.2,0.6-2.5,0.9-4.1,0.9h-5.2V38h5.2C111.6,38,112.9,38.3,114.1,38.9z M113.5,49c0.8-0.8,1.3-2,1.3-3.6s-0.4-2.7-1.3-3.6
		c-0.8-0.9-2-1.3-3.6-1.3h-2.1v9.8h2.1C111.4,50.3,112.6,49.9,113.5,49z"/>
	<path class="st0" d="M123,40.4v3.7h5v2.3h-5v3.9h5.6v2.4H120V38h8.6v2.4H123z"/>
	<path class="st0" d="M138.9,52.8l-3.3-5.8h-1.4v5.8h-3V38h5.5c1.1,0,2.1,0.2,2.9,0.6s1.4,0.9,1.8,1.6c0.4,0.7,0.6,1.5,0.6,2.3
		c0,1-0.3,1.9-0.8,2.6s-1.4,1.3-2.5,1.6l3.5,6H138.9z M134.2,44.8h2.5c0.8,0,1.4-0.2,1.8-0.6c0.4-0.4,0.6-0.9,0.6-1.6
		c0-0.7-0.2-1.2-0.6-1.6c-0.4-0.4-1-0.6-1.8-0.6h-2.5V44.8z"/>
	<path class="st0" d="M144.4,49.8v-2.3l6.9-9.9h3.5v9.7h1.9v2.6h-1.9v3h-3v-3H144.4z M152,40.7l-4.3,6.5h4.3V40.7z"/>
</g>
</svg>
